<svg width="75" height="76" xmlns="http://www.w3.org/2000/svg" xmlns:xlink="http://www.w3.org/1999/xlink" xml:space="preserve" overflow="hidden"><g transform="translate(-52 -27)"><path d="M26.125 64.0625 15.625 64.0625C13.0312 64.0625 10.9375 61.9688 10.9375 59.375L10.9375 26.5625" stroke="#FDDA24" stroke-width="3.125" stroke-linecap="round" stroke-linejoin="round" stroke-miterlimit="10" fill="none" transform="matrix(1 0 0 1.01333 52 27)"/><path d="M64.0625 51.75 64.0625 59.375C64.0625 61.9688 61.9688 64.0625 59.375 64.0625L26.125 64.0625" stroke="#00C389" stroke-width="3.125" stroke-linecap="round" stroke-linejoin="round" stroke-miterlimit="10" fill="none" transform="matrix(1 0 0 1.01333 52 27)"/><path d="M64.0625 26.5625 64.0625 51.75" stroke="#9063CD" stroke-width="3.125" stroke-linecap="round" stroke-linejoin="round" stroke-miterlimit="10" fill="none" transform="matrix(1 0 0 1.01333 52 27)"/><path d="M39.0625 14.0625 64.0625 14.0625 64.0625 26.5625" stroke="#FF7F37" stroke-width="3.125" stroke-linecap="round" stroke-linejoin="round" stroke-miterlimit="10" fill="none" transform="matrix(1 0 0 1.01333 52 27)"/><path d="M10.9375 26.5625 10.9375 14.0625 39.0625 14.0625" stroke="#F5B6CD" stroke-width="3.125" stroke-linecap="round" stroke-linejoin="round" stroke-miterlimit="10" fill="none" transform="matrix(1 0 0 1.01333 52 27)"/><path d="M46.9375 26.5625 64.0625 26.5625" stroke="#9063CD" stroke-width="3.125" stroke-linecap="round" stroke-linejoin="round" stroke-miterlimit="10" fill="none" transform="matrix(1 0 0 1.01333 52 27)"/><path d="M10.9375 26.5625 46.9375 26.5625" stroke="#00CCEA" stroke-width="3.125" stroke-linecap="round" stroke-linejoin="round" stroke-miterlimit="10" fill="none" transform="matrix(1 0 0 1.01333 52 27)"/><path d="M23.4375 10.9375 23.4375 20.3125" stroke="#F5B6CD" stroke-width="3.125" stroke-linecap="round" stroke-linejoin="round" stroke-miterlimit="10" fill="none" transform="matrix(1 0 0 1.01333 52 27)"/><path d="M51.5625 10.9375 51.5625 20.3125" stroke="#FF7F37" stroke-width="3.125" stroke-linecap="round" stroke-linejoin="round" stroke-miterlimit="10" fill="none" transform="matrix(1 0 0 1.01333 52 27)"/></g></svg>